<svg width="34" height="31" viewBox="0 0 34 31" fill="none" xmlns="http://www.w3.org/2000/svg">
<path d="M27.4402 12.7223C27.4402 15.4168 26.4794 17.9059 24.8608 19.9253L33.0245 27.3631C33.8306 28.0969 33.8306 29.2886 33.0245 30.0224C32.2185 30.7562 30.9094 30.7562 30.1034 30.0224L21.9397 22.5846C19.7214 24.064 16.9873 24.9328 14.0275 24.9328C6.61823 24.9328 0.614746 19.4674 0.614746 12.7223C0.614746 5.97721 6.61823 0.511848 14.0275 0.511848C21.4367 0.511848 27.4402 5.97721 27.4402 12.7223ZM14.0275 21.1757C15.2469 21.1757 16.4544 20.9571 17.581 20.5322C18.7076 20.1074 19.7312 19.4847 20.5935 18.6998C21.4557 17.9148 22.1397 16.9829 22.6064 15.9573C23.073 14.9317 23.3132 13.8324 23.3132 12.7223C23.3132 11.6122 23.073 10.513 22.6064 9.48734C22.1397 8.46172 21.4557 7.52983 20.5935 6.74486C19.7312 5.95989 18.7076 5.33721 17.581 4.91239C16.4544 4.48757 15.2469 4.26891 14.0275 4.26891C12.808 4.26891 11.6006 4.48757 10.474 4.91239C9.34738 5.33721 8.32373 5.95989 7.46147 6.74486C6.59921 7.52983 5.91522 8.46172 5.44857 9.48734C4.98192 10.513 4.74174 11.6122 4.74174 12.7223C4.74174 13.8324 4.98192 14.9317 5.44857 15.9573C5.91522 16.9829 6.59921 17.9148 7.46147 18.6998C8.32373 19.4847 9.34738 20.1074 10.474 20.5322C11.6006 20.9571 12.808 21.1757 14.0275 21.1757Z" fill="#55679C"/>
</svg>
